<svg width="22" height="22" viewBox="0 0 22 22" fill="none" xmlns="http://www.w3.org/2000/svg">
<path fill-rule="evenodd" clip-rule="evenodd" d="M9.07495 0.439209H12.925V3.74932C13.5922 3.926 14.2229 4.19232 14.8035 4.53462L17.0356 2.30249L19.7937 5.06053L17.5358 7.31846C17.8443 7.86505 18.0863 8.45422 18.2507 9.07495H21.647V12.925L18.2507 12.925C18.0863 13.5457 17.8443 14.1349 17.5358 14.6815L19.7937 16.9395L17.0356 19.6975L14.8035 17.4654C14.2229 17.8077 13.5922 18.074 12.925 18.2507V21.5608H9.07495V18.2507C8.40777 18.074 7.77706 17.8077 7.19648 17.4654L4.96436 19.6975L2.20632 16.9395L4.46424 14.6815C4.15567 14.1349 3.9137 13.5457 3.74932 12.925L0.353027 12.925V9.07495H3.74935C3.91372 8.45422 4.15569 7.86505 4.46424 7.31846L2.20632 5.06053L4.96436 2.30249L7.19648 4.53462C7.77706 4.19234 8.40777 3.92602 9.07495 3.74935V0.439209ZM11 14C12.6569 14 14 12.6569 14 11C14 9.34315 12.6569 8 11 8C9.34315 8 8 9.34315 8 11C8 12.6569 9.34315 14 11 14Z" fill="white"/>
</svg>
