<svg width="20" height="18" viewBox="0 0 20 18" fill="none" xmlns="http://www.w3.org/2000/svg">
<path fill-rule="evenodd" clip-rule="evenodd" d="M14.0897 7.47219C14.0897 10.2336 11.8511 12.4722 9.08968 12.4722C6.32829 12.4722 4.08968 10.2336 4.08968 7.47219C4.08968 4.7108 6.32829 2.47219 9.08968 2.47219C11.8511 2.47219 14.0897 4.7108 14.0897 7.47219ZM13.6818 14.4272C12.3651 15.2983 10.7866 15.8055 9.08968 15.8055C4.4873 15.8055 0.756348 12.0746 0.756348 7.47219C0.756348 2.86981 4.4873 -0.861145 9.08968 -0.861145C13.6921 -0.861145 17.423 2.86981 17.423 7.47219C17.423 9.2903 16.8408 10.9724 15.8525 12.3423L19.2437 15.7335L17.1159 17.8613L13.6818 14.4272Z" fill="white"/>
</svg>
